<svg viewBox="0 0 1400 1600" xmlns="http://www.w3.org/2000/svg">
  <defs>
    <!-- Gradients -->
    <linearGradient id="blueGradient" x1="0%" y1="0%" x2="100%" y2="100%">
      <stop offset="0%" style="stop-color:#007AFF;stop-opacity:1" />
      <stop offset="100%" style="stop-color:#0055CC;stop-opacity:1" />
    </linearGradient>
    
    <linearGradient id="orangeGradient" x1="0%" y1="0%" x2="100%" y2="100%">
      <stop offset="0%" style="stop-color:#FF7A00;stop-opacity:1" />
      <stop offset="100%" style="stop-color:#FF5500;stop-opacity:1" />
    </linearGradient>
  </defs>
  
  <!-- Dark Navy Background -->
  <rect width="1400" height="1600" fill="#0A1628"/>
  
  <!-- ========== HEADER SECTION ========== -->
  <g transform="translate(700, 80)">
    <text x="0" y="0" font-family="Montserrat, Arial, sans-serif" font-size="48" font-weight="700" fill="#FFFFFF" text-anchor="middle" letter-spacing="3">DO-IT</text>
    <text x="0" y="35" font-family="Montserrat, Arial, sans-serif" font-size="16" font-weight="400" fill="#8B9DB8" text-anchor="middle">Brand Identity & Iconography System</text>
  </g>
  
  <!-- ========== PRIMARY LOGO VARIATIONS ========== -->
  <g transform="translate(100, 180)">
    <text x="0" y="0" font-family="Montserrat, Arial, sans-serif" font-size="20" font-weight="600" fill="#FFFFFF">Logo Variations</text>
    
    <!-- Full Logo - Light Background -->
    <g transform="translate(150, 60)">
      <rect x="-120" y="-40" width="240" height="100" fill="#F5F5F5" rx="12"/>
      
      <!-- DO-IT Icon -->
      <g transform="translate(-60, 10)">
        <circle cx="0" cy="0" r="28" fill="none" stroke="#007AFF" stroke-width="5" stroke-linecap="round" stroke-dasharray="145 175" transform="rotate(-90)"/>
        <path d="M -10,-16 L -10,16 Q -10,20 -6,22.4 Q 0,25.6 6.4,22.4 Q 12,19.2 12,12 L 12,-12 Q 12,-19.2 6.4,-22.4 Q 0,-25.6 -6,-22.4 Q -10,-20 -10,-16 Z" fill="#007AFF"/>
        <circle cx="0" cy="0" r="6.5" fill="#FF7A00"/>
      </g>
      
      <text x="-20" y="18" font-family="Montserrat, Arial, sans-serif" font-size="32" font-weight="700" fill="#1E1E1E" letter-spacing="2">DO-IT</text>
      <text x="0" y="55" font-family="Arial, sans-serif" font-size="11" fill="#666" text-anchor="middle">Light Mode</text>
    </g>
    
    <!-- Full Logo - Dark Background -->
    <g transform="translate(450, 60)">
      <rect x="-120" y="-40" width="240" height="100" fill="#1E1E1E" rx="12"/>
      
      <g transform="translate(-60, 10)">
        <circle cx="0" cy="0" r="28" fill="none" stroke="#007AFF" stroke-width="5" stroke-linecap="round" stroke-dasharray="145 175" transform="rotate(-90)"/>
        <path d="M -10,-16 L -10,16 Q -10,20 -6,22.4 Q 0,25.6 6.4,22.4 Q 12,19.2 12,12 L 12,-12 Q 12,-19.2 6.4,-22.4 Q 0,-25.6 -6,-22.4 Q -10,-20 -10,-16 Z" fill="#007AFF"/>
        <circle cx="0" cy="0" r="6.5" fill="#FF7A00"/>
      </g>
      
      <text x="-20" y="18" font-family="Montserrat, Arial, sans-serif" font-size="32" font-weight="700" fill="#FFFFFF" letter-spacing="2">DO-IT</text>
      <text x="0" y="55" font-family="Arial, sans-serif" font-size="11" fill="#8B9DB8" text-anchor="middle">Dark Mode</text>
    </g>
    
    <!-- App Icon -->
    <g transform="translate(750, 60)">
      <rect x="-50" y="-40" width="100" height="100" fill="#007AFF" rx="20"/>
      
      <g transform="translate(0, 10)">
        <circle cx="0" cy="0" r="28" fill="none" stroke="white" stroke-width="5" stroke-linecap="round" stroke-dasharray="145 175" transform="rotate(-90)" opacity="0.3"/>
        <path d="M -10,-16 L -10,16 Q -10,20 -6,22.4 Q 0,25.6 6.4,22.4 Q 12,19.2 12,12 L 12,-12 Q 12,-19.2 6.4,-22.4 Q 0,-25.6 -6,-22.4 Q -10,-20 -10,-16 Z" fill="white"/>
        <circle cx="0" cy="0" r="6.5" fill="#FF7A00"/>
      </g>
      
      <text x="0" y="55" font-family="Arial, sans-serif" font-size="11" fill="#8B9DB8" text-anchor="middle">App Icon</text>
    </g>
  </g>
  
  <!-- ========== ICONOGRAPHY SYSTEM ========== -->
  <g transform="translate(100, 420)">
    <g>
      <circle cx="10" cy="0" r="5" fill="#FF7A00"/>
      <text x="25" y="5" font-family="Montserrat, Arial, sans-serif" font-size="28" font-weight="700" fill="#FFFFFF">Iconography</text>
    </g>
    <text x="0" y="35" font-family="Montserrat, Arial, sans-serif" font-size="14" font-weight="400" fill="#8B9DB8">Simple, rounded icons in vibrant orange that represent key app features</text>
  </g>
  
  <!-- Icon Grid -->
  <g transform="translate(100, 520)">
    <!-- Row 1 -->
    <!-- Tasks Icon -->
    <g transform="translate(110, 90)">
      <circle cx="0" cy="0" r="50" fill="#162B42" stroke="#1E3A52" stroke-width="2"/>
      <path d="M -18,-8 L -18,18 M -8,-8 L -8,18 M 2,-8 L 2,18 M 12,-8 L 12,18" stroke="#FF7A00" stroke-width="3" stroke-linecap="round"/>
      <circle cx="-18" cy="-18" r="3" fill="#FF7A00"/>
      <circle cx="-8" cy="-15" r="3" fill="#FF7A00"/>
      <circle cx="2" cy="-18" r="3" fill="#FF7A00"/>
      <circle cx="12" cy="-15" r="3" fill="#FF7A00"/>
      <text x="0" y="80" font-family="Montserrat, Arial, sans-serif" font-size="14" font-weight="600" fill="#FFFFFF" text-anchor="middle">Tasks</text>
      <text x="0" y="98" font-family="Arial, sans-serif" font-size="11" fill="#8B9DB8" text-anchor="middle">Daily to-dos</text>
    </g>
    
    <!-- Focus Mode Icon -->
    <g transform="translate(330, 90)">
      <circle cx="0" cy="0" r="50" fill="#162B42" stroke="#1E3A52" stroke-width="2"/>
      <circle cx="0" cy="0" r="20" fill="none" stroke="#FF7A00" stroke-width="3"/>
      <path d="M 0,-20 L 0,-28 M 0,20 L 0,28 M -20,0 L -28,0 M 20,0 L 28,0" stroke="#FF7A00" stroke-width="3" stroke-linecap="round"/>
      <path d="M 8,-5 L 3,0 L 8,5" fill="none" stroke="#FF7A00" stroke-width="3" stroke-linecap="round" stroke-linejoin="round"/>
      <text x="0" y="80" font-family="Montserrat, Arial, sans-serif" font-size="14" font-weight="600" fill="#FFFFFF" text-anchor="middle">Focus Mode</text>
      <text x="0" y="98" font-family="Arial, sans-serif" font-size="11" fill="#8B9DB8" text-anchor="middle">Time management</text>
    </g>
    
    <!-- Goals Icon -->
    <g transform="translate(550, 90)">
      <circle cx="0" cy="0" r="50" fill="#162B42" stroke="#1E3A52" stroke-width="2"/>
      <circle cx="0" cy="0" r="22" fill="none" stroke="#FF7A00" stroke-width="3"/>
      <circle cx="0" cy="0" r="12" fill="none" stroke="#FF7A00" stroke-width="3"/>
      <circle cx="0" cy="0" r="4" fill="#FF7A00"/>
      <path d="M 12,-18 L 18,-24" stroke="#FF7A00" stroke-width="3" stroke-linecap="round"/>
      <circle cx="18" cy="-24" r="2" fill="#FF7A00"/>
      <text x="0" y="80" font-family="Montserrat, Arial, sans-serif" font-size="14" font-weight="600" fill="#FFFFFF" text-anchor="middle">Goals</text>
      <text x="0" y="98" font-family="Arial, sans-serif" font-size="11" fill="#8B9DB8" text-anchor="middle">Target achievement</text>
    </g>
    
    <!-- Projects Icon -->
    <g transform="translate(770, 90)">
      <circle cx="0" cy="0" r="50" fill="#162B42" stroke="#1E3A52" stroke-width="2"/>
      <rect x="-18" y="-18" width="36" height="36" rx="4" fill="none" stroke="#FF7A00" stroke-width="3"/>
      <circle cx="-10" cy="-10" r="3" fill="#FF7A00"/>
      <circle cx="10" cy="-10" r="3" fill="#FF7A00"/>
      <circle cx="-10" cy="10" r="3" fill="#FF7A00"/>
      <circle cx="10" cy="10" r="3" fill="#FF7A00"/>
      <text x="0" y="80" font-family="Montserrat, Arial, sans-serif" font-size="14" font-weight="600" fill="#FFFFFF" text-anchor="middle">Projects</text>
      <text x="0" y="98" font-family="Arial, sans-serif" font-size="11" fill="#8B9DB8" text-anchor="middle">Organization</text>
    </g>
    
    <!-- Wellness Icon -->
    <g transform="translate(990, 90)">
      <circle cx="0" cy="0" r="50" fill="#162B42" stroke="#1E3A52" stroke-width="2"/>
      <path d="M 0,12 Q -8,4 -12,-2 Q -14,-6 -12,-10 Q -10,-14 -6,-14 Q -2,-14 0,-10 Q 2,-14 6,-14 Q 10,-14 12,-10 Q 14,-6 12,-2 Q 8,4 0,12 Z" fill="#FF7A00"/>
      <text x="0" y="80" font-family="Montserrat, Arial, sans-serif" font-size="14" font-weight="600" fill="#FFFFFF" text-anchor="middle">Wellness</text>
      <text x="0" y="98" font-family="Arial, sans-serif" font-size="11" fill="#8B9DB8" text-anchor="middle">Health & fitness</text>
    </g>
    
    <!-- Row 2 -->
    <!-- Analytics Icon -->
    <g transform="translate(110, 310)">
      <circle cx="0" cy="0" r="50" fill="#162B42" stroke="#1E3A52" stroke-width="2"/>
      <path d="M -20,15 L -20,5 L -10,0 L 0,8 L 10,-5 L 20,-10 L 20,15 Z" fill="none" stroke="#FF7A00" stroke-width="3" stroke-linecap="round" stroke-linejoin="round"/>
      <circle cx="-10" cy="0" r="3" fill="#FF7A00"/>
      <circle cx="0" cy="8" r="3" fill="#FF7A00"/>
      <circle cx="10" cy="-5" r="3" fill="#FF7A00"/>
      <text x="0" y="80" font-family="Montserrat, Arial, sans-serif" font-size="14" font-weight="600" fill="#FFFFFF" text-anchor="middle">Analytics</text>
      <text x="0" y="98" font-family="Arial, sans-serif" font-size="11" fill="#8B9DB8" text-anchor="middle">Progress tracking</text>
    </g>
    
    <!-- Reminders Icon -->
    <g transform="translate(330, 310)">
      <circle cx="0" cy="0" r="50" fill="#162B42" stroke="#1E3A52" stroke-width="2"/>
      <path d="M -12,-8 Q -12,-18 -2,-18 L 2,-18 Q 12,-18 12,-8 L 12,8 Q 12,12 8,12 L -8,12 Q -12,12 -12,8 Z" fill="none" stroke="#FF7A00" stroke-width="3" stroke-linecap="round"/>
      <rect x="-6" y="-22" width="12" height="4" rx="2" fill="#FF7A00"/>
      <path d="M -10,12 Q -10,18 0,18 Q 10,18 10,12" fill="none" stroke="#FF7A00" stroke-width="3" stroke-linecap="round"/>
      <text x="0" y="80" font-family="Montserrat, Arial, sans-serif" font-size="14" font-weight="600" fill="#FFFFFF" text-anchor="middle">Reminders</text>
      <text x="0" y="98" font-family="Arial, sans-serif" font-size="11" fill="#8B9DB8" text-anchor="middle">Notifications</text>
    </g>
    
    <!-- Calendar Icon -->
    <g transform="translate(550, 310)">
      <circle cx="0" cy="0" r="50" fill="#162B42" stroke="#1E3A52" stroke-width="2"/>
      <rect x="-16" y="-14" width="32" height="28" rx="3" fill="none" stroke="#FF7A00" stroke-width="3"/>
      <line x1="-16" y1="-4" x2="16" y2="-4" stroke="#FF7A00" stroke-width="3"/>
      <circle cx="-8" cy="4" r="2" fill="#FF7A00"/>
      <circle cx="0" cy="4" r="2" fill="#FF7A00"/>
      <circle cx="8" cy="4" r="2" fill="#FF7A00"/>
      <text x="0" y="80" font-family="Montserrat, Arial, sans-serif" font-size="14" font-weight="600" fill="#FFFFFF" text-anchor="middle">Calendar</text>
      <text x="0" y="98" font-family="Arial, sans-serif" font-size="11" fill="#8B9DB8" text-anchor="middle">Schedule</text>
    </g>
    
    <!-- Habits Icon -->
    <g transform="translate(770, 310)">
      <circle cx="0" cy="0" r="50" fill="#162B42" stroke="#1E3A52" stroke-width="2"/>
      <circle cx="0" cy="0" r="20" fill="none" stroke="#FF7A00" stroke-width="3" stroke-dasharray="20 5"/>
      <path d="M -6,-2 L -2,4 L 8,-8" fill="none" stroke="#FF7A00" stroke-width="3" stroke-linecap="round" stroke-linejoin="round"/>
      <text x="0" y="80" font-family="Montserrat, Arial, sans-serif" font-size="14" font-weight="600" fill="#FFFFFF" text-anchor="middle">Habits</text>
      <text x="0" y="98" font-family="Arial, sans-serif" font-size="11" fill="#8B9DB8" text-anchor="middle">Routine building</text>
    </g>
    
    <!-- Settings Icon -->
    <g transform="translate(990, 310)">
      <circle cx="0" cy="0" r="50" fill="#162B42" stroke="#1E3A52" stroke-width="2"/>
      <circle cx="0" cy="0" r="10" fill="none" stroke="#FF7A00" stroke-width="3"/>
      <g>
        <rect x="-2" y="-22" width="4" height="8" rx="1" fill="#FF7A00"/>
        <rect x="-2" y="14" width="4" height="8" rx="1" fill="#FF7A00"/>
        <rect x="-22" y="-2" width="8" height="4" ry="1" fill="#FF7A00"/>
        <rect x="14" y="-2" width="8" height="4" ry="1" fill="#FF7A00"/>
      </g>
      <text x="0" y="80" font-family="Montserrat, Arial, sans-serif" font-size="14" font-weight="600" fill="#FFFFFF" text-anchor="middle">Settings</text>
      <text x="0" y="98" font-family="Arial, sans-serif" font-size="11" fill="#8B9DB8" text-anchor="middle">Preferences</text>
    </g>
  </g>
  
  <!-- ========== DESIGN GUIDELINES ========== -->
  <g transform="translate(100, 1100)">
    <rect x="0" y="0" width="1200" height="380" fill="#162B42" rx="16" stroke="#1E3A52" stroke-width="2"/>
    
    <text x="40" y="50" font-family="Montserrat, Arial, sans-serif" font-size="24" font-weight="700" fill="#FFFFFF">Icon Guidelines</text>
    
    <!-- Guidelines Grid -->
    <g transform="translate(40, 90)">
      <circle cx="8" cy="0" r="4" fill="#FF7A00"/>
      <text x="25" y="5" font-family="Montserrat, Arial, sans-serif" font-size="14" font-weight="600" fill="#FFFFFF">Use vibrant orange (#FF7A00) for all feature icons</text>
      
      <circle cx="8" cy="40" r="4" fill="#FF7A00"/>
      <text x="25" y="45" font-family="Montserrat, Arial, sans-serif" font-size="14" font-weight="600" fill="#FFFFFF">Maintain 3px stroke width for consistency</text>
      
      <circle cx="8" cy="80" r="4" fill="#FF7A00"/>
      <text x="25" y="85" font-family="Montserrat, Arial, sans-serif" font-size="14" font-weight="600" fill="#FFFFFF">Keep designs simple, flat, and geometric</text>
      
      <circle cx="8" cy="120" r="4" fill="#FF7A00"/>
      <text x="25" y="125" font-family="Montserrat, Arial, sans-serif" font-size="14" font-weight="600" fill="#FFFFFF">Use rounded corners and caps for a friendly feel</text>
      
      <circle cx="8" cy="160" r="4" fill="#FF7A00"/>
      <text x="25" y="165" font-family="Montserrat, Arial, sans-serif" font-size="14" font-weight="600" fill="#FFFFFF">Icons work on dark navy (#0A1628) and dark backgrounds</text>
    </g>
    
    <!-- Color Swatches -->
    <g transform="translate(700, 90)">
      <text x="0" y="-10" font-family="Montserrat, Arial, sans-serif" font-size="16" font-weight="600" fill="#FFFFFF">Color Palette</text>
      
      <g transform="translate(0, 20)">
        <rect x="0" y="0" width="80" height="50" fill="#007AFF" rx="6"/>
        <text x="40" y="70" font-family="Arial, sans-serif" font-size="11" fill="#8B9DB8" text-anchor="middle">#007AFF</text>
        <text x="40" y="85" font-family="Arial, sans-serif" font-size="10" fill="#8B9DB8" text-anchor="middle">Primary</text>
      </g>
      
      <g transform="translate(100, 20)">
        <rect x="0" y="0" width="80" height="50" fill="#FF7A00" rx="6"/>
        <text x="40" y="70" font-family="Arial, sans-serif" font-size="11" fill="#8B9DB8" text-anchor="middle">#FF7A00</text>
        <text x="40" y="85" font-family="Arial, sans-serif" font-size="10" fill="#8B9DB8" text-anchor="middle">Accent</text>
      </g>
      
      <g transform="translate(200, 20)">
        <rect x="0" y="0" width="80" height="50" fill="#0A1628" stroke="#1E3A52" stroke-width="1" rx="6"/>
        <text x="40" y="70" font-family="Arial, sans-serif" font-size="11" fill="#8B9DB8" text-anchor="middle">#0A1628</text>
        <text x="40" y="85" font-family="Arial, sans-serif" font-size="10" fill="#8B9DB8" text-anchor="middle">Background</text>
      </g>
      
      <g transform="translate(300, 20)">
        <rect x="0" y="0" width="80" height="50" fill="#8B9DB8" rx="6"/>
        <text x="40" y="70" font-family="Arial, sans-serif" font-size="11" fill="#8B9DB8" text-anchor="middle">#8B9DB8</text>
        <text x="40" y="85" font-family="Arial, sans-serif" font-size="10" fill="#8B9DB8" text-anchor="middle">Secondary</text>
      </g>
    </g>
  </g>
  
  <!-- Footer -->
  <text x="700" y="1560" font-family="Montserrat, Arial, sans-serif" font-size="12" fill="#8B9DB8" text-anchor="middle">DO-IT Brand System — Combining powerful motivation with clear, actionable design</text>
</svg>